<svg width="89" height="18" viewBox="0 0 89 18" version="1.1" xmlns="http://www.w3.org/2000/svg" xmlns:xlink="http://www.w3.org/1999/xlink">
<title>attractie</title>
<desc>Created using Figma</desc>
<g id="Canvas" transform="translate(-4395 2513)">
<g id="attractie">
<use xlink:href="#path0_fill" transform="translate(4395 -2529)" fill="#FFFFFF"/>
</g>
</g>
<defs>
<path id="path0_fill" d="M 8.337 33L 8.337 31.635C 7.945 32.125 7.441 32.496 6.825 32.748C 6.209 33 5.502 33.126 4.704 33.126C 3.92 33.126 3.227 32.979 2.625 32.685C 2.037 32.377 1.582 31.957 1.26 31.425C 0.938 30.893 0.777 30.298 0.777 29.64C 0.777 28.59 1.148 27.771 1.89 27.183C 2.632 26.581 3.682 26.273 5.04 26.259L 8.316 26.259L 8.316 25.965C 8.316 25.307 8.099 24.796 7.665 24.432C 7.231 24.068 6.601 23.886 5.775 23.886C 4.711 23.886 3.598 24.236 2.436 24.936L 1.449 23.046C 2.331 22.556 3.129 22.206 3.843 21.996C 4.571 21.772 5.418 21.66 6.384 21.66C 7.84 21.66 8.967 22.01 9.765 22.71C 10.577 23.41 10.99 24.39 11.004 25.65L 11.025 33L 8.337 33ZM 5.355 31.026C 6.139 31.026 6.811 30.844 7.371 30.48C 7.931 30.102 8.246 29.64 8.316 29.094L 8.316 28.086L 5.481 28.086C 4.753 28.086 4.214 28.198 3.864 28.422C 3.528 28.632 3.36 28.982 3.36 29.472C 3.36 29.948 3.535 30.326 3.885 30.606C 4.249 30.886 4.739 31.026 5.355 31.026ZM 20.6607 32.307C 19.7647 32.853 18.8267 33.126 17.8467 33.126C 16.8807 33.126 16.0897 32.846 15.4737 32.286C 14.8577 31.712 14.5497 30.872 14.5497 29.766L 14.5497 24.222L 12.9747 24.222L 12.9537 22.227L 14.5497 22.227L 14.5497 19.14L 17.2587 19.14L 17.2587 22.227L 20.4717 22.227L 20.4717 24.222L 17.2587 24.222L 17.2587 29.283C 17.2587 29.801 17.3567 30.172 17.5527 30.396C 17.7487 30.606 18.0427 30.711 18.4347 30.711C 18.8547 30.711 19.3867 30.557 20.0307 30.249L 20.6607 32.307ZM 29.3765 32.307C 28.4805 32.853 27.5425 33.126 26.5625 33.126C 25.5965 33.126 24.8055 32.846 24.1895 32.286C 23.5735 31.712 23.2655 30.872 23.2655 29.766L 23.2655 24.222L 21.6905 24.222L 21.6695 22.227L 23.2655 22.227L 23.2655 19.14L 25.9745 19.14L 25.9745 22.227L 29.1875 22.227L 29.1875 24.222L 25.9745 24.222L 25.9745 29.283C 25.9745 29.801 26.0725 30.172 26.2685 30.396C 26.4645 30.606 26.7585 30.711 27.1505 30.711C 27.5705 30.711 28.1025 30.557 28.7465 30.249L 29.3765 32.307ZM 34.2494 23.928C 34.6274 23.2 35.1384 22.647 35.7824 22.269C 36.4404 21.877 37.2034 21.674 38.0714 21.66L 38.0714 24.306C 36.9094 24.236 35.9784 24.509 35.2784 25.125C 34.5924 25.727 34.2494 26.546 34.2494 27.582L 34.2494 33L 31.5194 33L 31.5194 21.765L 34.2494 21.765L 34.2494 23.928ZM 46.2354 33L 46.2354 31.635C 45.8434 32.125 45.3394 32.496 44.7234 32.748C 44.1074 33 43.4004 33.126 42.6024 33.126C 41.8184 33.126 41.1254 32.979 40.5234 32.685C 39.9354 32.377 39.4804 31.957 39.1584 31.425C 38.8364 30.893 38.6754 30.298 38.6754 29.64C 38.6754 28.59 39.0464 27.771 39.7884 27.183C 40.5304 26.581 41.5804 26.273 42.9384 26.259L 46.2144 26.259L 46.2144 25.965C 46.2144 25.307 45.9974 24.796 45.5634 24.432C 45.1294 24.068 44.4994 23.886 43.6734 23.886C 42.6094 23.886 41.4964 24.236 40.3344 24.936L 39.3474 23.046C 40.2294 22.556 41.0274 22.206 41.7414 21.996C 42.4694 21.772 43.3164 21.66 44.2824 21.66C 45.7384 21.66 46.8654 22.01 47.6634 22.71C 48.4754 23.41 48.8884 24.39 48.9024 25.65L 48.9234 33L 46.2354 33ZM 43.2534 31.026C 44.0374 31.026 44.7094 30.844 45.2694 30.48C 45.8294 30.102 46.1444 29.64 46.2144 29.094L 46.2144 28.086L 43.3794 28.086C 42.6514 28.086 42.1124 28.198 41.7624 28.422C 41.4264 28.632 41.2584 28.982 41.2584 29.472C 41.2584 29.948 41.4334 30.326 41.7834 30.606C 42.1474 30.886 42.6374 31.026 43.2534 31.026ZM 59.7142 25.314C 58.9582 24.488 57.9782 24.075 56.7742 24.075C 55.8642 24.075 55.1222 24.383 54.5482 24.999C 53.9882 25.615 53.7082 26.413 53.7082 27.393C 53.7082 28.401 53.9882 29.213 54.5482 29.829C 55.1222 30.445 55.8642 30.753 56.7742 30.753C 58.1182 30.753 59.1262 30.312 59.7982 29.43L 61.4992 30.837C 60.9952 31.565 60.3302 32.125 59.5042 32.517C 58.6782 32.909 57.7192 33.105 56.6272 33.105C 55.5212 33.105 54.5342 32.867 53.6662 32.391C 52.8122 31.915 52.1472 31.25 51.6712 30.396C 51.1952 29.528 50.9572 28.534 50.9572 27.414C 50.9572 26.28 51.1952 25.279 51.6712 24.411C 52.1612 23.543 52.8332 22.871 53.6872 22.395C 54.5552 21.919 55.5492 21.681 56.6692 21.681C 57.6912 21.681 58.6012 21.863 59.3992 22.227C 60.2112 22.577 60.8692 23.081 61.3732 23.739L 59.7142 25.314ZM 70.4127 32.307C 69.5167 32.853 68.5787 33.126 67.5987 33.126C 66.6327 33.126 65.8417 32.846 65.2257 32.286C 64.6097 31.712 64.3017 30.872 64.3017 29.766L 64.3017 24.222L 62.7267 24.222L 62.7057 22.227L 64.3017 22.227L 64.3017 19.14L 67.0107 19.14L 67.0107 22.227L 70.2237 22.227L 70.2237 24.222L 67.0107 24.222L 67.0107 29.283C 67.0107 29.801 67.1087 30.172 67.3047 30.396C 67.5007 30.606 67.7947 30.711 68.1867 30.711C 68.6067 30.711 69.1387 30.557 69.7827 30.249L 70.4127 32.307ZM 72.5555 21.765L 75.2855 21.765L 75.2855 33L 72.5555 33L 72.5555 21.765ZM 73.8995 16.935C 74.3475 16.935 74.7185 17.089 75.0125 17.397C 75.3065 17.705 75.4535 18.097 75.4535 18.573C 75.4535 19.035 75.3065 19.42 75.0125 19.728C 74.7185 20.036 74.3475 20.19 73.8995 20.19C 73.4515 20.19 73.0805 20.036 72.7865 19.728C 72.4925 19.42 72.3455 19.035 72.3455 18.573C 72.3455 18.097 72.4925 17.705 72.7865 17.397C 73.0805 17.089 73.4515 16.935 73.8995 16.935ZM 83.3498 21.681C 85.1418 21.681 86.4858 22.192 87.3818 23.214C 88.2918 24.236 88.7468 25.671 88.7468 27.519C 88.7468 27.883 88.7398 28.156 88.7258 28.338L 80.4308 28.338C 80.6128 29.136 80.9838 29.766 81.5438 30.228C 82.1178 30.676 82.8178 30.9 83.6438 30.9C 84.2178 30.9 84.7638 30.795 85.2818 30.585C 85.8138 30.361 86.2758 30.046 86.6678 29.64L 88.1378 31.173C 87.5778 31.789 86.8918 32.265 86.0798 32.601C 85.2818 32.937 84.3928 33.105 83.4128 33.105C 82.2648 33.105 81.2498 32.867 80.3678 32.391C 79.4998 31.915 78.8278 31.25 78.3518 30.396C 77.8758 29.528 77.6378 28.534 77.6378 27.414C 77.6378 26.294 77.8758 25.3 78.3518 24.432C 78.8418 23.564 79.5208 22.892 80.3888 22.416C 81.2568 21.926 82.2438 21.681 83.3498 21.681ZM 86.2478 26.511C 86.2198 25.685 85.9468 25.027 85.4288 24.537C 84.9108 24.047 84.2248 23.802 83.3708 23.802C 82.5728 23.802 81.9008 24.047 81.3548 24.537C 80.8228 25.013 80.4938 25.671 80.3678 26.511L 86.2478 26.511Z"/>
</defs>
</svg>
