<svg width="24" height="20" viewBox="0 0 24 20" version="1.1" xmlns="http://www.w3.org/2000/svg" xmlns:xlink="http://www.w3.org/1999/xlink">
<title>tw-icon</title>
<desc>Created using Figma</desc>
<g id="Canvas" transform="translate(-5541 2514)">
<g id="tw-icon">
<use xlink:href="#path0_fill" transform="translate(5541 -2514)" fill="#FFFFFF"/>
</g>
</g>
<defs>
<path id="path0_fill" d="M 24 2.36631C 23.1167 2.76787 22.1689 3.0402 21.173 3.16178C 22.1898 2.5371 22.9682 1.54627 23.3371 0.369248C 22.3833 0.947741 21.3305 1.3678 20.2087 1.59551C 19.3103 0.612368 18.0326 7.61222e-08 16.6153 7.61222e-08C 13.8963 7.61222e-08 11.6917 2.26171 11.6917 5.04962C 11.6917 5.44501 11.7352 5.8312 11.8192 6.20049C 7.72801 5.98967 4.1002 3.97877 1.67216 0.923119C 1.24773 1.66781 1.00628 2.53553 1.00628 3.46179C 1.00628 5.21424 1.87612 6.76051 3.19589 7.66517C 2.38902 7.63749 1.63016 7.40978 0.965805 7.03127L 0.965805 7.09436C 0.965805 9.54069 2.66349 11.5824 4.91456 12.0471C 4.50212 12.1609 4.06722 12.224 3.6173 12.224C 3.29938 12.224 2.99193 12.1917 2.69047 12.1301C 3.31734 14.138 5.13503 15.5981 7.28864 15.6381C 5.60444 16.9921 3.48083 17.7967 1.17428 17.7967C 0.776864 17.7967 0.385412 17.7721 1.86288e-12 17.7275C 2.1791 19.163 4.76612 20 7.5466 20C 16.6034 20 21.554 12.304 21.554 5.62968L 21.5375 4.97579C 22.5048 4.26799 23.3416 3.37871 24 2.36631Z"/>
</defs>
</svg>
